<svg width="669" height="126" viewBox="0 0 669 126" fill="none" xmlns="http://www.w3.org/2000/svg">
<path d="M94.5 84L115.5 63L94.5 42" stroke="white" stroke-width="10.5" stroke-linecap="round" stroke-linejoin="round"/>
<path d="M31.5 42L10.5 63L31.5 84" stroke="white" stroke-width="10.5" stroke-linecap="round" stroke-linejoin="round"/>
<path d="M76.125 21L49.875 105" stroke="white" stroke-width="10.5" stroke-linecap="round" stroke-linejoin="round"/>
<path d="M143.997 61.9466C143.997 55.83 145.321 50.3897 147.967 45.6259C150.614 40.8032 154.29 37.0685 158.995 34.4219C163.759 31.7165 169.14 30.3638 175.139 30.3638C182.491 30.3638 188.784 32.3046 194.018 36.1863C199.252 40.068 202.752 45.3612 204.516 52.0659H187.931C186.696 49.4781 184.931 47.5079 182.638 46.1552C180.403 44.8025 177.844 44.1261 174.963 44.1261C170.316 44.1261 166.552 45.7435 163.67 48.9782C160.789 52.213 159.348 56.5357 159.348 61.9466C159.348 67.3574 160.789 71.6802 163.67 74.9149C166.552 78.1496 170.316 79.767 174.963 79.767C177.844 79.767 180.403 79.0906 182.638 77.7379C184.931 76.3852 186.696 74.415 187.931 71.8272H204.516C202.752 78.5319 199.252 83.8251 194.018 87.7068C188.784 91.5297 182.491 93.4411 175.139 93.4411C169.14 93.4411 163.759 92.1178 158.995 89.4712C154.29 86.7658 150.614 83.0311 147.967 78.2673C145.321 73.5034 143.997 68.0631 143.997 61.9466ZM239.691 93.7058C234.869 93.7058 230.516 92.6765 226.635 90.6181C222.812 88.5596 219.783 85.6189 217.548 81.7961C215.372 77.9732 214.284 73.5034 214.284 68.3866C214.284 63.3287 215.401 58.8883 217.636 55.0654C219.871 51.1837 222.929 48.2136 226.811 46.1552C230.693 44.0967 235.045 43.0675 239.868 43.0675C244.69 43.0675 249.043 44.0967 252.924 46.1552C256.806 48.2136 259.864 51.1837 262.099 55.0654C264.334 58.8883 265.451 63.3287 265.451 68.3866C265.451 73.4446 264.305 77.9144 262.011 81.7961C259.776 85.6189 256.688 88.5596 252.748 90.6181C248.866 92.6765 244.514 93.7058 239.691 93.7058ZM239.691 80.6492C242.573 80.6492 245.014 79.5906 247.013 77.4733C249.072 75.356 250.101 72.3271 250.101 68.3866C250.101 64.4461 249.101 61.4172 247.102 59.3C245.161 57.1827 242.75 56.124 239.868 56.124C236.927 56.124 234.486 57.1827 232.545 59.3C230.605 61.3584 229.634 64.3873 229.634 68.3866C229.634 72.3271 230.575 75.356 232.457 77.4733C234.398 79.5906 236.809 80.6492 239.691 80.6492ZM273.984 68.2984C273.984 63.2405 274.925 58.8 276.807 54.9772C278.748 51.1543 281.365 48.2136 284.659 46.1552C287.952 44.0967 291.628 43.0675 295.686 43.0675C298.921 43.0675 301.862 43.7438 304.508 45.0965C307.214 46.4492 309.331 48.2725 310.86 50.5662V27.7172H325.946V93H310.86V85.9424C309.448 88.2949 307.419 90.177 304.773 91.5885C302.185 93 299.156 93.7058 295.686 93.7058C291.628 93.7058 287.952 92.6765 284.659 90.6181C281.365 88.5008 278.748 85.5307 276.807 81.7078C274.925 77.8262 273.984 73.3563 273.984 68.2984ZM310.86 68.3866C310.86 64.6226 309.801 61.6525 307.684 59.4764C305.626 57.3003 303.097 56.2123 300.097 56.2123C297.098 56.2123 294.539 57.3003 292.422 59.4764C290.363 61.5937 289.334 64.5343 289.334 68.2984C289.334 72.0625 290.363 75.0619 292.422 77.2968C294.539 79.4729 297.098 80.561 300.097 80.561C303.097 80.561 305.626 79.4729 307.684 77.2968C309.801 75.1207 310.86 72.1507 310.86 68.3866ZM386.792 67.5926C386.792 69.0042 386.704 70.4745 386.527 72.0036H352.386C352.621 75.0619 353.592 77.4145 355.297 79.0612C357.062 80.6492 359.208 81.4432 361.737 81.4432C365.501 81.4432 368.119 79.8552 369.589 76.6793H385.645C384.822 79.914 383.322 82.8253 381.146 85.4131C379.029 88.0009 376.352 90.0299 373.118 91.5003C369.883 92.9706 366.266 93.7058 362.267 93.7058C357.444 93.7058 353.151 92.6765 349.387 90.6181C345.623 88.5596 342.682 85.6189 340.565 81.7961C338.447 77.9732 337.389 73.5034 337.389 68.3866C337.389 63.2699 338.418 58.8 340.476 54.9772C342.594 51.1543 345.534 48.2136 349.298 46.1552C353.062 44.0967 357.385 43.0675 362.267 43.0675C367.031 43.0675 371.265 44.0673 374.97 46.067C378.676 48.0666 381.557 50.9191 383.616 54.6243C385.733 58.3295 386.792 62.6523 386.792 67.5926ZM371.353 63.6227C371.353 61.035 370.471 58.9765 368.707 57.4473C366.942 55.9182 364.737 55.1536 362.09 55.1536C359.561 55.1536 357.415 55.8888 355.65 57.3591C353.945 58.8295 352.886 60.9173 352.474 63.6227H371.353ZM413.365 51.9777C415.129 49.2723 417.335 47.155 419.981 45.6259C422.628 44.0379 425.568 43.2439 428.803 43.2439V59.2117H424.657C420.893 59.2117 418.07 60.0351 416.188 61.6819C414.306 63.2699 413.365 66.0929 413.365 70.151V93H398.279V43.7732H413.365V51.9777ZM459.569 93.7058C455.275 93.7058 451.452 92.9706 448.1 91.5003C444.748 90.0299 442.101 88.0303 440.16 85.5013C438.219 82.9135 437.131 80.0317 436.896 76.8557H451.805C451.982 78.5613 452.776 79.9434 454.187 81.0021C455.599 82.0607 457.334 82.59 459.392 82.59C461.274 82.59 462.715 82.2372 463.715 81.5314C464.774 80.7668 465.303 79.7964 465.303 78.6201C465.303 77.2086 464.568 76.1794 463.097 75.5324C461.627 74.8267 459.245 74.0621 455.952 73.2387C452.423 72.4153 449.482 71.5625 447.13 70.6803C444.777 69.7393 442.748 68.2984 441.042 66.3576C439.337 64.3579 438.484 61.6819 438.484 58.3295C438.484 55.5065 439.249 52.9481 440.778 50.6544C442.366 48.3019 444.659 46.4492 447.659 45.0965C450.717 43.7438 454.334 43.0675 458.51 43.0675C464.685 43.0675 469.537 44.5966 473.066 47.6549C476.654 50.7132 478.712 54.7713 479.242 59.8293H465.303C465.068 58.1237 464.303 56.771 463.009 55.7712C461.774 54.7713 460.127 54.2714 458.069 54.2714C456.304 54.2714 454.952 54.6243 454.011 55.3301C453.07 55.977 452.599 56.8886 452.599 58.0649C452.599 59.4764 453.334 60.535 454.805 61.2408C456.334 61.9466 458.686 62.6523 461.862 63.3581C465.509 64.2991 468.479 65.2401 470.772 66.1811C473.066 67.0633 475.066 68.5337 476.771 70.5921C478.536 72.5918 479.447 75.2972 479.506 78.7084C479.506 81.5902 478.683 84.178 477.036 86.4717C475.448 88.7066 473.125 90.471 470.067 91.7649C467.067 93.0588 463.568 93.7058 459.569 93.7058ZM542.55 43.7732L511.673 116.378H495.44L506.732 91.3238L486.707 43.7732H503.557L514.937 74.562L526.229 43.7732H542.55ZM600.143 43.7732V93H585.057V86.2953C583.528 88.4714 581.44 90.2358 578.794 91.5885C576.206 92.8824 573.324 93.5293 570.148 93.5293C566.384 93.5293 563.061 92.7059 560.179 91.0592C557.297 89.3536 555.063 86.9128 553.475 83.7369C551.887 80.561 551.093 76.8263 551.093 72.533V43.7732H566.09V70.5039C566.09 73.7974 566.943 76.3558 568.648 78.179C570.354 80.0023 572.648 80.9139 575.53 80.9139C578.47 80.9139 580.793 80.0023 582.499 78.179C584.205 76.3558 585.057 73.7974 585.057 70.5039V43.7732H600.143ZM633.21 43.0675C636.68 43.0675 639.709 43.7732 642.297 45.1848C644.944 46.5963 646.973 48.4489 648.384 50.7426V43.7732H663.47V92.9118C663.47 97.4404 662.558 101.528 660.735 105.174C658.971 108.88 656.236 111.82 652.53 113.996C648.884 116.172 644.326 117.261 638.856 117.261C631.564 117.261 625.653 115.526 621.124 112.056C616.596 108.644 614.008 103.998 613.361 98.1168H628.27C628.74 99.9988 629.858 101.469 631.622 102.528C633.387 103.645 635.563 104.204 638.151 104.204C641.268 104.204 643.738 103.292 645.561 101.469C647.443 99.7047 648.384 96.8523 648.384 92.9118V85.9424C646.914 88.2361 644.885 90.1181 642.297 91.5885C639.709 93 636.68 93.7058 633.21 93.7058C629.152 93.7058 625.476 92.6765 622.183 90.6181C618.889 88.5008 616.272 85.5307 614.331 81.7078C612.449 77.8262 611.508 73.3563 611.508 68.2984C611.508 63.2405 612.449 58.8 614.331 54.9772C616.272 51.1543 618.889 48.2136 622.183 46.1552C625.476 44.0967 629.152 43.0675 633.21 43.0675ZM648.384 68.3866C648.384 64.6226 647.326 61.6525 645.208 59.4764C643.15 57.3003 640.621 56.2123 637.621 56.2123C634.622 56.2123 632.063 57.3003 629.946 59.4764C627.888 61.5937 626.858 64.5343 626.858 68.2984C626.858 72.0625 627.888 75.0619 629.946 77.2968C632.063 79.4729 634.622 80.561 637.621 80.561C640.621 80.561 643.15 79.4729 645.208 77.2968C647.326 75.1207 648.384 72.1507 648.384 68.3866Z" fill="white"/>
</svg>
