<svg width="240" height="61" viewBox="0 0 240 61" fill="none" xmlns="http://www.w3.org/2000/svg">
<g filter="url(#filter0_d_1_6)">
<rect x="31.3286" width="42.4889" height="42.4889" rx="12.2746" transform="rotate(47.5049 31.3286 0)" fill="#FF1212"/>
<path d="M36.1404 37.087V39.0514H25.167V37.087H36.1404ZM35.5985 22.0833V24.0477H24.7606V22.0833H35.5985ZM32.3133 30.4827V30.7197L25.6751 39.0514H24.2187V37.2902L29.7393 30.6181L24.2187 23.8783V22.0833H25.6751L32.3133 30.4827Z" fill="#F5F5F5"/>
<path d="M36.1404 37.087H37.3326V35.8948H36.1404V37.087ZM36.1404 39.0514V40.2435H37.3326V39.0514H36.1404ZM25.167 39.0514H23.9749V40.2435H25.167V39.0514ZM25.167 37.087V35.8948H23.9749V37.087H25.167ZM35.5985 22.0833H36.7907V20.8911H35.5985V22.0833ZM35.5985 24.0477V25.2398H36.7907V24.0477H35.5985ZM24.7606 24.0477H23.5684V25.2398H24.7606V24.0477ZM24.7606 22.0833V20.8911H23.5684V22.0833H24.7606ZM32.3133 30.4827H33.5054V30.0684L33.2486 29.7434L32.3133 30.4827ZM32.3133 30.7197L33.2457 31.4626L33.5054 31.1366V30.7197H32.3133ZM25.6751 39.0514V40.2435H26.2495L26.6075 39.7943L25.6751 39.0514ZM24.2187 39.0514H23.0265V40.2435H24.2187V39.0514ZM24.2187 37.2902L23.3002 36.5302L23.0265 36.8609V37.2902H24.2187ZM29.7393 30.6181L30.6578 31.3781L31.2834 30.622L30.6615 29.8627L29.7393 30.6181ZM24.2187 23.8783H23.0265V24.3042L23.2964 24.6337L24.2187 23.8783ZM24.2187 22.0833V20.8911H23.0265V22.0833H24.2187ZM25.6751 22.0833L26.6104 21.3441L26.2524 20.8911H25.6751V22.0833ZM34.9482 37.087V39.0514H37.3326V37.087H34.9482ZM36.1404 37.8592H25.167V40.2435H36.1404V37.8592ZM26.3592 39.0514V37.087H23.9749V39.0514H26.3592ZM25.167 38.2792H36.1404V35.8948H25.167V38.2792ZM34.4063 22.0833V24.0477H36.7907V22.0833H34.4063ZM35.5985 22.8555H24.7606V25.2398H35.5985V22.8555ZM25.9528 24.0477V22.0833H23.5684V24.0477H25.9528ZM24.7606 23.2755H35.5985V20.8911H24.7606V23.2755ZM31.1211 30.4827V30.7197H33.5054V30.4827H31.1211ZM31.3809 29.9768L24.7427 38.3085L26.6075 39.7943L33.2457 31.4626L31.3809 29.9768ZM25.6751 37.8592H24.2187V40.2435H25.6751V37.8592ZM25.4109 39.0514V37.2902H23.0265V39.0514H25.4109ZM25.1372 38.0502L30.6578 31.3781L28.8207 29.8581L23.3002 36.5302L25.1372 38.0502ZM30.6615 29.8627L25.141 23.1229L23.2964 24.6337L28.817 31.3736L30.6615 29.8627ZM25.4109 23.8783V22.0833H23.0265V23.8783H25.4109ZM24.2187 23.2755H25.6751V20.8911H24.2187V23.2755ZM24.7397 22.8225L31.3779 31.2219L33.2486 29.7434L26.6104 21.3441L24.7397 22.8225Z" fill="white"/>
</g>
<path d="M72.4862 39.2718C71.1171 39.2718 69.889 39.0302 68.8018 38.547C67.7146 38.0437 66.8489 37.3692 66.2046 36.5236C65.5805 35.678 65.2382 34.7418 65.1778 33.715H69.436C69.5165 34.3593 69.8286 34.8928 70.3722 35.3156C70.9359 35.7384 71.6305 35.9498 72.456 35.9498C73.2613 35.9498 73.8855 35.7887 74.3284 35.4666C74.7915 35.1445 75.023 34.7317 75.023 34.2284C75.023 33.6848 74.7411 33.2821 74.1774 33.0204C73.6338 32.7385 72.758 32.4365 71.55 32.1144C70.3017 31.8124 69.2749 31.5003 68.4696 31.1782C67.6844 30.8561 66.9999 30.3628 66.416 29.6984C65.8523 29.034 65.5704 28.1381 65.5704 27.0106C65.5704 26.0845 65.8321 25.2389 66.3556 24.4738C66.8992 23.7087 67.6643 23.1047 68.6508 22.6618C69.6575 22.2189 70.8353 21.9974 72.1842 21.9974C74.1774 21.9974 75.7679 22.5007 76.9558 23.5074C78.1437 24.4939 78.798 25.8328 78.9188 27.524H74.872C74.8116 26.8596 74.5297 26.3361 74.0264 25.9536C73.5432 25.5509 72.8889 25.3496 72.0634 25.3496C71.2983 25.3496 70.7044 25.4905 70.2816 25.7724C69.8789 26.0543 69.6776 26.4469 69.6776 26.9502C69.6776 27.5139 69.9595 27.9468 70.5232 28.2488C71.0869 28.5307 71.9627 28.8226 73.1506 29.1246C74.3586 29.4266 75.3552 29.7387 76.1404 30.0608C76.9256 30.3829 77.6001 30.8863 78.1638 31.5708C78.7477 32.2352 79.0497 33.1211 79.0698 34.2284C79.0698 35.1948 78.798 36.0605 78.2544 36.8256C77.7309 37.5907 76.9659 38.1947 75.9592 38.6376C74.9727 39.0604 73.815 39.2718 72.4862 39.2718ZM84.6846 20.276C83.9397 20.276 83.3156 20.0445 82.8122 19.5814C82.329 19.0982 82.0874 18.5043 82.0874 17.7996C82.0874 17.0949 82.329 16.5111 82.8122 16.048C83.3156 15.5648 83.9397 15.3232 84.6846 15.3232C85.4296 15.3232 86.0436 15.5648 86.5268 16.048C87.0302 16.5111 87.2818 17.0949 87.2818 17.7996C87.2818 18.5043 87.0302 19.0982 86.5268 19.5814C86.0436 20.0445 85.4296 20.276 84.6846 20.276ZM86.7684 22.2692V39H82.5404V22.2692H86.7684ZM97.4991 21.9974C98.7474 21.9974 99.8446 22.2491 100.791 22.7524C101.737 23.2356 102.482 23.8698 103.026 24.655V22.2692H107.284V39.1208C107.284 40.6711 106.972 42.0502 106.348 43.2582C105.724 44.4863 104.787 45.4527 103.539 46.1574C102.291 46.8822 100.781 47.2446 99.0091 47.2446C96.6334 47.2446 94.6804 46.6909 93.1503 45.5836C91.6403 44.4763 90.7846 42.9663 90.5833 41.0536H94.7811C95.0026 41.8187 95.4757 42.4227 96.2005 42.8656C96.9454 43.3287 97.8414 43.5602 98.8883 43.5602C100.116 43.5602 101.113 43.1877 101.878 42.4428C102.643 41.718 103.026 40.6107 103.026 39.1208V36.5236C102.482 37.3088 101.727 37.9631 100.761 38.4866C99.8144 39.0101 98.7272 39.2718 97.4991 39.2718C96.0898 39.2718 94.8012 38.9094 93.6335 38.1846C92.4658 37.4598 91.5396 36.4431 90.8551 35.1344C90.1907 33.8056 89.8585 32.2855 89.8585 30.5742C89.8585 28.883 90.1907 27.3831 90.8551 26.0744C91.5396 24.7657 92.4557 23.7591 93.6033 23.0544C94.771 22.3497 96.0696 21.9974 97.4991 21.9974ZM103.026 30.6346C103.026 29.6078 102.824 28.732 102.422 28.0072C102.019 27.2623 101.475 26.6985 100.791 26.316C100.106 25.9133 99.3715 25.712 98.5863 25.712C97.8011 25.712 97.0763 25.9033 96.4119 26.2858C95.7475 26.6683 95.2039 27.2321 94.7811 27.977C94.3784 28.7018 94.1771 29.5675 94.1771 30.5742C94.1771 31.5809 94.3784 32.4667 94.7811 33.2318C95.2039 33.9767 95.7475 34.5505 96.4119 34.9532C97.0964 35.3559 97.8212 35.5572 98.5863 35.5572C99.3715 35.5572 100.106 35.3659 100.791 34.9834C101.475 34.5807 102.019 34.017 102.422 33.2922C102.824 32.5473 103.026 31.6614 103.026 30.6346ZM132.191 22.0276C134.244 22.0276 135.895 22.6618 137.144 23.9302C138.412 25.1785 139.046 26.9301 139.046 29.185V39H134.818V29.7588C134.818 28.4501 134.486 27.4535 133.822 26.769C133.157 26.0643 132.251 25.712 131.104 25.712C129.956 25.712 129.04 26.0643 128.355 26.769C127.691 27.4535 127.359 28.4501 127.359 29.7588V39H123.131V29.7588C123.131 28.4501 122.799 27.4535 122.134 26.769C121.47 26.0643 120.564 25.712 119.416 25.712C118.249 25.712 117.322 26.0643 116.638 26.769C115.973 27.4535 115.641 28.4501 115.641 29.7588V39H111.413V22.2692H115.641V24.2926C116.185 23.5879 116.879 23.0343 117.725 22.6316C118.591 22.2289 119.537 22.0276 120.564 22.0276C121.873 22.0276 123.04 22.3095 124.067 22.8732C125.094 23.4168 125.889 24.202 126.453 25.2288C126.996 24.2624 127.782 23.4873 128.808 22.9034C129.855 22.3195 130.983 22.0276 132.191 22.0276ZM141.971 30.5742C141.971 28.883 142.303 27.3831 142.968 26.0744C143.652 24.7657 144.568 23.7591 145.716 23.0544C146.884 22.3497 148.182 21.9974 149.612 21.9974C150.86 21.9974 151.947 22.2491 152.873 22.7524C153.82 23.2557 154.575 23.8899 155.138 24.655V22.2692H159.397V39H155.138V36.5538C154.595 37.339 153.84 37.9933 152.873 38.5168C151.927 39.0201 150.83 39.2718 149.582 39.2718C148.172 39.2718 146.884 38.9094 145.716 38.1846C144.568 37.4598 143.652 36.4431 142.968 35.1344C142.303 33.8056 141.971 32.2855 141.971 30.5742ZM155.138 30.6346C155.138 29.6078 154.937 28.732 154.534 28.0072C154.132 27.2623 153.588 26.6985 152.904 26.316C152.219 25.9133 151.484 25.712 150.699 25.712C149.914 25.712 149.189 25.9033 148.525 26.2858C147.86 26.6683 147.317 27.2321 146.894 27.977C146.491 28.7018 146.29 29.5675 146.29 30.5742C146.29 31.5809 146.491 32.4667 146.894 33.2318C147.317 33.9767 147.86 34.5505 148.525 34.9532C149.209 35.3559 149.934 35.5572 150.699 35.5572C151.484 35.5572 152.219 35.3659 152.904 34.9834C153.588 34.5807 154.132 34.017 154.534 33.2922C154.937 32.5473 155.138 31.6614 155.138 30.6346ZM172.797 22.0276C174.791 22.0276 176.401 22.6618 177.629 23.9302C178.858 25.1785 179.472 26.9301 179.472 29.185V39H175.244V29.7588C175.244 28.43 174.911 27.4133 174.247 26.7086C173.583 25.9838 172.677 25.6214 171.529 25.6214C170.361 25.6214 169.435 25.9838 168.751 26.7086C168.086 27.4133 167.754 28.43 167.754 29.7588V39H163.526V22.2692H167.754V24.353C168.318 23.6282 169.032 23.0645 169.898 22.6618C170.784 22.239 171.75 22.0276 172.797 22.0276ZM190.921 39.2718C189.311 39.2718 187.861 38.9195 186.573 38.2148C185.284 37.49 184.267 36.4733 183.522 35.1646C182.798 33.8559 182.435 32.3459 182.435 30.6346C182.435 28.9233 182.808 27.4133 183.553 26.1046C184.318 24.7959 185.355 23.7893 186.663 23.0846C187.972 22.3598 189.432 21.9974 191.042 21.9974C192.653 21.9974 194.113 22.3598 195.421 23.0846C196.73 23.7893 197.757 24.7959 198.502 26.1046C199.267 27.4133 199.649 28.9233 199.649 30.6346C199.649 32.3459 199.257 33.8559 198.471 35.1646C197.706 36.4733 196.659 37.49 195.331 38.2148C194.022 38.9195 192.552 39.2718 190.921 39.2718ZM190.921 35.5874C191.686 35.5874 192.401 35.4062 193.066 35.0438C193.75 34.6613 194.294 34.0975 194.696 33.3526C195.099 32.6077 195.3 31.7017 195.3 30.6346C195.3 29.0441 194.878 27.826 194.032 26.9804C193.207 26.1147 192.19 25.6818 190.982 25.6818C189.774 25.6818 188.757 26.1147 187.932 26.9804C187.126 27.826 186.724 29.0441 186.724 30.6346C186.724 32.2251 187.116 33.4533 187.901 34.319C188.707 35.1646 189.713 35.5874 190.921 35.5874ZM201.663 30.5742C201.663 28.883 201.996 27.3831 202.66 26.0744C203.345 24.7657 204.271 23.7591 205.438 23.0544C206.606 22.3497 207.905 21.9974 209.334 21.9974C210.421 21.9974 211.458 22.239 212.445 22.7222C213.431 23.1853 214.217 23.8094 214.8 24.5946V16.652H219.089V39H214.8V36.5236C214.277 37.3491 213.542 38.0135 212.596 38.5168C211.65 39.0201 210.552 39.2718 209.304 39.2718C207.895 39.2718 206.606 38.9094 205.438 38.1846C204.271 37.4598 203.345 36.4431 202.66 35.1344C201.996 33.8056 201.663 32.2855 201.663 30.5742ZM214.831 30.6346C214.831 29.6078 214.629 28.732 214.227 28.0072C213.824 27.2623 213.28 26.6985 212.596 26.316C211.911 25.9133 211.176 25.712 210.391 25.712C209.606 25.712 208.881 25.9033 208.217 26.2858C207.552 26.6683 207.009 27.2321 206.586 27.977C206.183 28.7018 205.982 29.5675 205.982 30.5742C205.982 31.5809 206.183 32.4667 206.586 33.2318C207.009 33.9767 207.552 34.5505 208.217 34.9532C208.901 35.3559 209.626 35.5572 210.391 35.5572C211.176 35.5572 211.911 35.3659 212.596 34.9834C213.28 34.5807 213.824 34.017 214.227 33.2922C214.629 32.5473 214.831 31.6614 214.831 30.6346ZM238.771 30.2722C238.771 30.8762 238.731 31.4198 238.65 31.903H226.419C226.52 33.111 226.943 34.0573 227.688 34.7418C228.433 35.4263 229.349 35.7686 230.436 35.7686C232.006 35.7686 233.124 35.0941 233.788 33.7452H238.348C237.865 35.3559 236.939 36.6847 235.57 37.7316C234.201 38.7584 232.52 39.2718 230.527 39.2718C228.916 39.2718 227.466 38.9195 226.178 38.2148C224.909 37.49 223.913 36.4733 223.188 35.1646C222.483 33.8559 222.131 32.3459 222.131 30.6346C222.131 28.9031 222.483 27.3831 223.188 26.0744C223.893 24.7657 224.879 23.7591 226.148 23.0544C227.416 22.3497 228.876 21.9974 230.527 21.9974C232.117 21.9974 233.537 22.3397 234.785 23.0242C236.053 23.7087 237.03 24.6852 237.714 25.9536C238.419 27.2019 238.771 28.6414 238.771 30.2722ZM234.392 29.0642C234.372 27.977 233.979 27.1113 233.214 26.467C232.449 25.8026 231.513 25.4704 230.406 25.4704C229.359 25.4704 228.473 25.7925 227.748 26.4368C227.044 27.0609 226.611 27.9367 226.45 29.0642H234.392Z" fill="black"/>
<defs>
<filter id="filter0_d_1_6" x="-1.8884" y="0" width="63.8079" height="63.8078" filterUnits="userSpaceOnUse" color-interpolation-filters="sRGB">
<feFlood flood-opacity="0" result="BackgroundImageFix"/>
<feColorMatrix in="SourceAlpha" type="matrix" values="0 0 0 0 0 0 0 0 0 0 0 0 0 0 0 0 0 0 127 0" result="hardAlpha"/>
<feOffset dy="1.8884"/>
<feGaussianBlur stdDeviation="0.944198"/>
<feComposite in2="hardAlpha" operator="out"/>
<feColorMatrix type="matrix" values="0 0 0 0 0 0 0 0 0 0 0 0 0 0 0 0 0 0 0.25 0"/>
<feBlend mode="normal" in2="BackgroundImageFix" result="effect1_dropShadow_1_6"/>
<feBlend mode="normal" in="SourceGraphic" in2="effect1_dropShadow_1_6" result="shape"/>
</filter>
</defs>
</svg>
