<svg width="932" height="233" viewBox="0 0 932 233" fill="none" xmlns="http://www.w3.org/2000/svg">
<g filter="url(#filter0_d_1_6)">
<rect x="121.597" width="164.913" height="164.913" rx="47.6417" transform="rotate(47.5049 121.597 0)" fill="#FF1212"/>
<path d="M140.273 144.676V152.301H97.6815V144.676H140.273ZM138.17 86.442V94.0663H96.1041V86.442H138.17ZM125.418 119.043V119.963L99.6534 152.301H94.0008V145.465L115.428 119.568L94.0008 93.4091V86.442H99.6534L125.418 119.043Z" fill="#F5F5F5"/>
<path d="M140.273 144.676H144.9V140.049H140.273V144.676ZM140.273 152.301V156.928H144.9V152.301H140.273ZM97.6815 152.301H93.0543V156.928H97.6815V152.301ZM97.6815 144.676V140.049H93.0543V144.676H97.6815ZM138.17 86.442H142.797V81.8148H138.17V86.442ZM138.17 94.0663V98.6935H142.797V94.0663H138.17ZM96.1041 94.0663H91.4769V98.6935H96.1041V94.0663ZM96.1041 86.442V81.8148H91.4769V86.442H96.1041ZM125.418 119.043H130.046V117.435L129.049 116.174L125.418 119.043ZM125.418 119.963L129.037 122.846L130.046 121.581V119.963H125.418ZM99.6534 152.301V156.928H101.883L103.272 155.184L99.6534 152.301ZM94.0008 152.301H89.3736V156.928H94.0008V152.301ZM94.0008 145.465L90.4358 142.515L89.3736 143.799V145.465H94.0008ZM115.428 119.568L118.993 122.518L121.421 119.583L119.008 116.636L115.428 119.568ZM94.0008 93.4091H89.3736V95.0622L90.4212 96.3411L94.0008 93.4091ZM94.0008 86.442V81.8148H89.3736V86.442H94.0008ZM99.6534 86.442L103.284 83.5729L101.894 81.8148H99.6534V86.442ZM135.646 144.676V152.301H144.9V144.676H135.646ZM140.273 147.673H97.6815V156.928H140.273V147.673ZM102.309 152.301V144.676H93.0543V152.301H102.309ZM97.6815 149.303H140.273V140.049H97.6815V149.303ZM133.542 86.442V94.0663H142.797V86.442H133.542ZM138.17 89.4391H96.1041V98.6935H138.17V89.4391ZM100.731 94.0663V86.442H91.4769V94.0663H100.731ZM96.1041 91.0692H138.17V81.8148H96.1041V91.0692ZM120.791 119.043V119.963H130.046V119.043H120.791ZM121.799 117.079L96.0344 149.417L103.272 155.184L129.037 122.846L121.799 117.079ZM99.6534 147.673H94.0008V156.928H99.6534V147.673ZM98.628 152.301V145.465H89.3736V152.301H98.628ZM97.5659 148.415L118.993 122.518L111.863 116.619L90.4358 142.515L97.5659 148.415ZM119.008 116.636L97.5805 90.477L90.4212 96.3411L111.848 122.501L119.008 116.636ZM98.628 93.4091V86.442H89.3736V93.4091H98.628ZM94.0008 91.0692H99.6534V81.8148H94.0008V91.0692ZM96.0231 89.3111L121.788 121.912L129.049 116.174L103.284 83.5729L96.0231 89.3111Z" fill="white"/>
</g>
<path d="M281.343 153.343C276.029 153.343 271.262 152.405 267.042 150.53C262.823 148.576 259.462 145.958 256.962 142.676C254.539 139.394 253.211 135.76 252.976 131.775H269.504C269.816 134.276 271.028 136.347 273.138 137.988C275.326 139.629 278.022 140.449 281.225 140.449C284.351 140.449 286.774 139.824 288.493 138.574C290.29 137.323 291.189 135.721 291.189 133.768C291.189 131.658 290.095 130.095 287.907 129.079C285.797 127.985 282.398 126.813 277.709 125.563C272.864 124.391 268.879 123.179 265.753 121.929C262.705 120.679 260.048 118.764 257.782 116.185C255.594 113.607 254.5 110.129 254.5 105.753C254.5 102.159 255.516 98.8765 257.548 95.907C259.658 92.9375 262.627 90.5932 266.456 88.8741C270.363 87.1549 274.935 86.2953 280.171 86.2953C287.907 86.2953 294.08 88.2489 298.691 92.1561C303.301 95.9852 305.841 101.182 306.31 107.746H290.603C290.368 105.167 289.274 103.135 287.321 101.651C285.445 100.088 282.906 99.3063 279.702 99.3063C276.732 99.3063 274.427 99.8533 272.786 100.947C271.223 102.041 270.442 103.565 270.442 105.519C270.442 107.707 271.536 109.387 273.724 110.559C275.912 111.653 279.311 112.786 283.921 113.958C288.61 115.13 292.478 116.342 295.526 117.592C298.573 118.842 301.191 120.796 303.379 123.453C305.645 126.032 306.818 129.47 306.896 133.768C306.896 137.519 305.841 140.879 303.731 143.848C301.699 146.818 298.73 149.162 294.823 150.881C290.993 152.522 286.5 153.343 281.343 153.343ZM328.689 79.614C325.797 79.614 323.375 78.7153 321.421 76.918C319.546 75.0426 318.608 72.7373 318.608 70.0023C318.608 67.2672 319.546 65.0011 321.421 63.2037C323.375 61.3283 325.797 60.3906 328.689 60.3906C331.58 60.3906 333.964 61.3283 335.839 63.2037C337.793 65.0011 338.769 67.2672 338.769 70.0023C338.769 72.7373 337.793 75.0426 335.839 76.918C333.964 78.7153 331.58 79.614 328.689 79.614ZM336.777 87.3503V152.288H320.366V87.3503H336.777ZM378.426 86.2953C383.271 86.2953 387.53 87.2721 391.203 89.2257C394.875 91.1012 397.767 93.5627 399.877 96.6103V87.3503H416.404V152.757C416.404 158.774 415.193 164.127 412.77 168.815C410.348 173.582 406.714 177.333 401.869 180.068C397.024 182.881 391.163 184.288 384.287 184.288C375.066 184.288 367.486 182.139 361.547 177.841C355.686 173.543 352.365 167.682 351.584 160.259H367.877C368.736 163.228 370.573 165.572 373.386 167.292C376.277 169.089 379.754 169.988 383.818 169.988C388.585 169.988 392.453 168.542 395.422 165.651C398.392 162.837 399.877 158.539 399.877 152.757V142.676C397.767 145.724 394.836 148.264 391.085 150.295C387.413 152.327 383.193 153.343 378.426 153.343C372.956 153.343 367.955 151.936 363.422 149.123C358.89 146.31 355.295 142.364 352.638 137.284C350.06 132.127 348.77 126.227 348.77 119.585C348.77 113.021 350.06 107.199 352.638 102.119C355.295 97.0401 358.851 93.1329 363.305 90.3979C367.837 87.6628 372.878 86.2953 378.426 86.2953ZM399.877 119.819C399.877 115.834 399.095 112.434 397.532 109.621C395.969 106.73 393.859 104.542 391.203 103.057C388.546 101.494 385.693 100.713 382.646 100.713C379.598 100.713 376.785 101.455 374.206 102.94C371.627 104.425 369.518 106.613 367.877 109.504C366.314 112.317 365.532 115.677 365.532 119.585C365.532 123.492 366.314 126.93 367.877 129.9C369.518 132.791 371.627 135.018 374.206 136.581C376.863 138.144 379.676 138.925 382.646 138.925C385.693 138.925 388.546 138.183 391.203 136.698C393.859 135.135 395.969 132.947 397.532 130.134C399.095 127.243 399.877 123.804 399.877 119.819ZM513.076 86.4125C521.047 86.4125 527.455 88.8741 532.3 93.7971C537.223 98.6421 539.684 105.441 539.684 114.193V152.288H523.274V116.42C523.274 111.34 521.985 107.472 519.406 104.815C516.827 102.08 513.311 100.713 508.856 100.713C504.402 100.713 500.847 102.08 498.19 104.815C495.611 107.472 494.322 111.34 494.322 116.42V152.288H477.911V116.42C477.911 111.34 476.622 107.472 474.043 104.815C471.464 102.08 467.948 100.713 463.494 100.713C458.961 100.713 455.367 102.08 452.71 104.815C450.131 107.472 448.842 111.34 448.842 116.42V152.288H432.431V87.3503H448.842V95.2037C450.952 92.4687 453.648 90.3197 456.93 88.7568C460.29 87.194 463.963 86.4125 467.948 86.4125C473.027 86.4125 477.56 87.5065 481.545 89.6946C485.53 91.8045 488.617 94.8521 490.805 98.8374C492.915 95.0865 495.963 92.078 499.948 89.8118C504.011 87.5456 508.387 86.4125 513.076 86.4125ZM551.037 119.585C551.037 113.021 552.326 107.199 554.905 102.119C557.562 97.0401 561.117 93.1329 565.572 90.3979C570.104 87.6628 575.144 86.2953 580.692 86.2953C585.537 86.2953 589.757 87.2721 593.352 89.2257C597.025 91.1793 599.955 93.6409 602.143 96.6103V87.3503H618.67V152.288H602.143V142.793C600.033 145.841 597.103 148.381 593.352 150.413C589.679 152.366 585.42 153.343 580.575 153.343C575.105 153.343 570.104 151.936 565.572 149.123C561.117 146.31 557.562 142.364 554.905 137.284C552.326 132.127 551.037 126.227 551.037 119.585ZM602.143 119.819C602.143 115.834 601.362 112.434 599.799 109.621C598.236 106.73 596.126 104.542 593.469 103.057C590.812 101.494 587.96 100.713 584.912 100.713C581.865 100.713 579.051 101.455 576.473 102.94C573.894 104.425 571.784 106.613 570.143 109.504C568.58 112.317 567.799 115.677 567.799 119.585C567.799 123.492 568.58 126.93 570.143 129.9C571.784 132.791 573.894 135.018 576.473 136.581C579.13 138.144 581.943 138.925 584.912 138.925C587.96 138.925 590.812 138.183 593.469 136.698C596.126 135.135 598.236 132.947 599.799 130.134C601.362 127.243 602.143 123.804 602.143 119.819ZM670.683 86.4125C678.419 86.4125 684.671 88.8741 689.438 93.7971C694.205 98.6421 696.588 105.441 696.588 114.193V152.288H680.178V116.42C680.178 111.262 678.888 107.316 676.31 104.581C673.731 101.768 670.214 100.361 665.76 100.361C661.228 100.361 657.633 101.768 654.976 104.581C652.398 107.316 651.108 111.262 651.108 116.42V152.288H634.698V87.3503H651.108V95.4382C653.296 92.625 656.07 90.4369 659.43 88.8741C662.869 87.233 666.62 86.4125 670.683 86.4125ZM741.028 153.343C734.777 153.343 729.151 151.975 724.149 149.24C719.148 146.427 715.202 142.481 712.311 137.402C709.497 132.322 708.091 126.461 708.091 119.819C708.091 113.177 709.536 107.316 712.428 102.237C715.397 97.1573 719.422 93.2501 724.501 90.5151C729.58 87.7019 735.246 86.2953 741.497 86.2953C747.749 86.2953 753.414 87.7019 758.494 90.5151C763.573 93.2501 767.558 97.1573 770.45 102.237C773.419 107.316 774.904 113.177 774.904 119.819C774.904 126.461 773.38 132.322 770.332 137.402C767.363 142.481 763.299 146.427 758.142 149.24C753.063 151.975 747.358 153.343 741.028 153.343ZM741.028 139.043C743.998 139.043 746.772 138.339 749.351 136.933C752.008 135.448 754.118 133.26 755.68 130.369C757.243 127.477 758.025 123.961 758.025 119.819C758.025 113.646 756.384 108.918 753.102 105.636C749.898 102.276 745.952 100.596 741.263 100.596C736.574 100.596 732.628 102.276 729.424 105.636C726.298 108.918 724.735 113.646 724.735 119.819C724.735 125.992 726.259 130.759 729.307 134.119C732.433 137.402 736.34 139.043 741.028 139.043ZM782.722 119.585C782.722 113.021 784.011 107.199 786.59 102.119C789.247 97.0401 792.841 93.1329 797.374 90.3979C801.906 87.6628 806.946 86.2953 812.495 86.2953C816.714 86.2953 820.739 87.233 824.568 89.1085C828.397 90.9058 831.444 93.3283 833.711 96.3759V65.5481H850.355V152.288H833.711V142.676C831.679 145.88 828.827 148.459 825.154 150.413C821.481 152.366 817.222 153.343 812.377 153.343C806.907 153.343 801.906 151.936 797.374 149.123C792.841 146.31 789.247 142.364 786.59 137.284C784.011 132.127 782.722 126.227 782.722 119.585ZM833.828 119.819C833.828 115.834 833.046 112.434 831.484 109.621C829.921 106.73 827.811 104.542 825.154 103.057C822.497 101.494 819.645 100.713 816.597 100.713C813.549 100.713 810.736 101.455 808.158 102.94C805.579 104.425 803.469 106.613 801.828 109.504C800.265 112.317 799.484 115.677 799.484 119.585C799.484 123.492 800.265 126.93 801.828 129.9C803.469 132.791 805.579 135.018 808.158 136.581C810.814 138.144 813.628 138.925 816.597 138.925C819.645 138.925 822.497 138.183 825.154 136.698C827.811 135.135 829.921 132.947 831.484 130.134C833.046 127.243 833.828 123.804 833.828 119.819ZM926.749 118.413C926.749 120.757 926.593 122.867 926.28 124.742H878.808C879.198 129.431 880.839 133.104 883.731 135.76C886.622 138.417 890.178 139.746 894.397 139.746C900.493 139.746 904.83 137.128 907.408 131.892H925.108C923.233 138.144 919.638 143.301 914.324 147.365C909.01 151.35 902.485 153.343 894.749 153.343C888.498 153.343 882.871 151.975 877.87 149.24C872.947 146.427 869.079 142.481 866.266 137.402C863.531 132.322 862.163 126.461 862.163 119.819C862.163 113.099 863.531 107.199 866.266 102.119C869.001 97.0401 872.83 93.1329 877.753 90.3979C882.676 87.6628 888.341 86.2953 894.749 86.2953C900.922 86.2953 906.432 87.6238 911.277 90.2807C916.2 92.9376 919.99 96.7275 922.646 101.651C925.382 106.496 926.749 112.083 926.749 118.413ZM909.753 113.724C909.675 109.504 908.151 106.144 905.181 103.643C902.212 101.065 898.578 99.7752 894.28 99.7752C890.217 99.7752 886.778 101.025 883.965 103.526C881.23 105.949 879.55 109.348 878.925 113.724H909.753Z" fill="black"/>
<defs>
<filter id="filter0_d_1_6" x="-7.32942" y="0" width="247.659" height="247.659" filterUnits="userSpaceOnUse" color-interpolation-filters="sRGB">
<feFlood flood-opacity="0" result="BackgroundImageFix"/>
<feColorMatrix in="SourceAlpha" type="matrix" values="0 0 0 0 0 0 0 0 0 0 0 0 0 0 0 0 0 0 127 0" result="hardAlpha"/>
<feOffset dy="7.32949"/>
<feGaussianBlur stdDeviation="3.66474"/>
<feComposite in2="hardAlpha" operator="out"/>
<feColorMatrix type="matrix" values="0 0 0 0 0 0 0 0 0 0 0 0 0 0 0 0 0 0 0.25 0"/>
<feBlend mode="normal" in2="BackgroundImageFix" result="effect1_dropShadow_1_6"/>
<feBlend mode="normal" in="SourceGraphic" in2="effect1_dropShadow_1_6" result="shape"/>
</filter>
</defs>
</svg>
